<?xml version="1.0" encoding="UTF-8"?><svg xmlns="http://www.w3.org/2000/svg" xmlns:xlink="http://www.w3.org/1999/xlink" contentScriptType="text/ecmascript" width="30" zoomAndPan="magnify" contentStyleType="text/css" viewBox="0 0 30 30.000001" height="30.000001" preserveAspectRatio="xMidYMid meet" version="1.0"><defs><clipPath id="clip-0"><path d="M 2 4 L 28 4 L 28 25 L 2 25 Z M 2 4 " clip-rule="nonzero"/></clipPath><clipPath id="clip-1"><path d="M 3.460938 4.390625 L 28.027344 6.730469 L 26.304688 24.796875 L 1.742188 22.457031 Z M 3.460938 4.390625 " clip-rule="nonzero"/></clipPath><clipPath id="clip-2"><path d="M 3.460938 4.390625 L 28.027344 6.730469 L 26.304688 24.796875 L 1.742188 22.457031 Z M 3.460938 4.390625 " clip-rule="nonzero"/></clipPath><clipPath id="clip-3"><path d="M 3.460938 4.390625 L 28.027344 6.730469 L 26.304688 24.796875 L 1.742188 22.457031 Z M 3.460938 4.390625 " clip-rule="nonzero"/></clipPath><clipPath id="clip-4"><path d="M 2 13 L 27 13 L 27 25 L 2 25 Z M 2 13 " clip-rule="nonzero"/></clipPath><clipPath id="clip-5"><path d="M 3.460938 4.390625 L 28.027344 6.730469 L 26.304688 24.796875 L 1.742188 22.457031 Z M 3.460938 4.390625 " clip-rule="nonzero"/></clipPath><clipPath id="clip-6"><path d="M 3.460938 4.390625 L 28.027344 6.730469 L 26.304688 24.796875 L 1.742188 22.457031 Z M 3.460938 4.390625 " clip-rule="nonzero"/></clipPath><clipPath id="clip-7"><path d="M 3.460938 4.390625 L 28.027344 6.730469 L 26.304688 24.796875 L 1.742188 22.457031 Z M 3.460938 4.390625 " clip-rule="nonzero"/></clipPath><clipPath id="clip-8"><path d="M 3 4 L 28 4 L 28 21 L 3 21 Z M 3 4 " clip-rule="nonzero"/></clipPath><clipPath id="clip-9"><path d="M 3.460938 4.390625 L 28.027344 6.730469 L 26.304688 24.796875 L 1.742188 22.457031 Z M 3.460938 4.390625 " clip-rule="nonzero"/></clipPath><clipPath id="clip-10"><path d="M 3.460938 4.390625 L 28.027344 6.730469 L 26.304688 24.796875 L 1.742188 22.457031 Z M 3.460938 4.390625 " clip-rule="nonzero"/></clipPath><clipPath id="clip-11"><path d="M 3.460938 4.390625 L 28.027344 6.730469 L 26.304688 24.796875 L 1.742188 22.457031 Z M 3.460938 4.390625 " clip-rule="nonzero"/></clipPath><clipPath id="clip-12"><path d="M 3 4 L 28 4 L 28 19 L 3 19 Z M 3 4 " clip-rule="nonzero"/></clipPath><clipPath id="clip-13"><path d="M 3.460938 4.390625 L 28.027344 6.730469 L 26.304688 24.796875 L 1.742188 22.457031 Z M 3.460938 4.390625 " clip-rule="nonzero"/></clipPath><clipPath id="clip-14"><path d="M 3.460938 4.390625 L 28.027344 6.730469 L 26.304688 24.796875 L 1.742188 22.457031 Z M 3.460938 4.390625 " clip-rule="nonzero"/></clipPath><clipPath id="clip-15"><path d="M 3.460938 4.390625 L 28.027344 6.730469 L 26.304688 24.796875 L 1.742188 22.457031 Z M 3.460938 4.390625 " clip-rule="nonzero"/></clipPath><clipPath id="clip-16"><path d="M 10.226562 7.015625 L 19.660156 7.015625 L 19.660156 19 L 10.226562 19 Z M 10.226562 7.015625 " clip-rule="nonzero"/></clipPath><clipPath id="clip-17"><path d="M 12 19 L 16 19 L 16 22.257812 L 12 22.257812 Z M 12 19 " clip-rule="nonzero"/></clipPath></defs><g clip-path="url(#clip-0)"><g clip-path="url(#clip-1)"><g clip-path="url(#clip-2)"><g clip-path="url(#clip-3)"><path fill="rgb(79.998779%, 83.918762%, 86.669922%)" d="M 26.5625 22.015625 C 26.414062 23.550781 25.074219 24.679688 23.570312 24.535156 L 4.476562 22.714844 C 2.972656 22.574219 1.867188 21.210938 2.015625 19.675781 L 3.207031 7.171875 C 3.351562 5.636719 4.691406 4.507812 6.199219 4.652344 L 25.289062 6.472656 C 26.796875 6.613281 27.898438 7.976562 27.753906 9.507812 Z M 26.5625 22.015625 " fill-opacity="1" fill-rule="nonzero"/></g></g></g></g><g clip-path="url(#clip-4)"><g clip-path="url(#clip-5)"><g clip-path="url(#clip-6)"><g clip-path="url(#clip-7)"><path fill="rgb(59.999084%, 66.668701%, 70.979309%)" d="M 10.78125 13.949219 L 2.320312 21.074219 C 2.300781 21.089844 2.289062 21.113281 2.273438 21.132812 C 2.46875 21.550781 2.757812 21.910156 3.125 22.183594 C 3.148438 22.167969 3.171875 22.164062 3.191406 22.148438 L 11.652344 15.023438 C 11.945312 14.777344 11.988281 14.335938 11.746094 14.039062 C 11.503906 13.742188 11.074219 13.703125 10.78125 13.949219 M 26.03125 23.394531 C 26.019531 23.375 26.015625 23.347656 25.996094 23.328125 L 19.035156 14.734375 C 18.792969 14.4375 18.359375 14.394531 18.070312 14.640625 C 17.777344 14.890625 17.734375 15.328125 17.976562 15.625 L 24.941406 24.21875 C 24.957031 24.238281 24.980469 24.25 24.996094 24.265625 C 25.410156 24.066406 25.761719 23.769531 26.03125 23.394531 " fill-opacity="1" fill-rule="nonzero"/></g></g></g></g><g clip-path="url(#clip-8)"><g clip-path="url(#clip-9)"><g clip-path="url(#clip-10)"><g clip-path="url(#clip-11)"><path fill="rgb(59.999084%, 66.668701%, 70.979309%)" d="M 25.289062 6.472656 L 6.199219 4.652344 C 4.691406 4.507812 3.351562 5.636719 3.207031 7.171875 L 3.136719 7.886719 L 12.085938 18.902344 C 13.25 20.339844 15.359375 20.542969 16.777344 19.347656 L 27.683594 10.210938 L 27.753906 9.507812 C 27.898438 7.976562 26.796875 6.613281 25.289062 6.472656 Z M 25.289062 6.472656 " fill-opacity="1" fill-rule="nonzero"/></g></g></g></g><g clip-path="url(#clip-12)"><g clip-path="url(#clip-13)"><g clip-path="url(#clip-14)"><g clip-path="url(#clip-15)"><path fill="rgb(88.238525%, 90.979004%, 92.939758%)" d="M 25.289062 6.472656 L 6.199219 4.652344 C 5.113281 4.550781 4.125 5.109375 3.597656 6 L 12.6875 17.21875 C 13.648438 18.40625 15.375 18.570312 16.542969 17.585938 L 27.589844 8.285156 C 27.238281 7.3125 26.371094 6.574219 25.289062 6.472656 Z M 25.289062 6.472656 " fill-opacity="1" fill-rule="nonzero"/></g></g></g></g><g clip-path="url(#clip-16)"><path fill="rgb(4.309082%, 13.729858%, 27.059937%)" d="M 14.269531 18.558594 C 13.523438 18.558594 12.921875 17.941406 12.921875 17.175781 L 12.921875 15.328125 C 12.921875 14.5625 13.523438 13.941406 14.269531 13.941406 C 14.539062 13.941406 16.964844 13.480469 16.964844 11.632812 C 16.964844 10.710938 16.066406 9.789062 14.71875 9.789062 C 13.621094 9.789062 12.921875 10.710938 12.921875 11.171875 C 12.921875 11.9375 12.320312 12.558594 11.574219 12.558594 C 10.828125 12.558594 10.226562 11.9375 10.226562 11.171875 C 10.226562 8.921875 12.285156 7.015625 14.71875 7.015625 C 18.3125 7.015625 19.660156 9.777344 19.660156 12.097656 C 19.660156 14.007812 18.636719 15.472656 16.78125 16.214844 C 16.375 16.375 15.976562 16.484375 15.617188 16.558594 L 15.617188 17.175781 C 15.617188 17.941406 15.015625 18.558594 14.269531 18.558594 Z M 14.269531 18.558594 " fill-opacity="1" fill-rule="nonzero"/></g><g clip-path="url(#clip-17)"><path fill="rgb(4.309082%, 13.729858%, 27.059937%)" d="M 15.617188 20.867188 C 15.617188 21.050781 15.582031 21.230469 15.515625 21.398438 C 15.445312 21.566406 15.347656 21.71875 15.222656 21.847656 C 15.097656 21.976562 14.949219 22.078125 14.785156 22.148438 C 14.621094 22.21875 14.449219 22.253906 14.269531 22.253906 C 14.089844 22.253906 13.917969 22.21875 13.753906 22.148438 C 13.589844 22.078125 13.441406 21.976562 13.316406 21.847656 C 13.191406 21.71875 13.09375 21.566406 13.023438 21.398438 C 12.957031 21.230469 12.921875 21.050781 12.921875 20.867188 C 12.921875 20.683594 12.957031 20.507812 13.023438 20.339844 C 13.09375 20.167969 13.191406 20.019531 13.316406 19.890625 C 13.441406 19.757812 13.589844 19.660156 13.753906 19.589844 C 13.917969 19.519531 14.089844 19.484375 14.269531 19.484375 C 14.449219 19.484375 14.621094 19.519531 14.785156 19.589844 C 14.949219 19.660156 15.097656 19.757812 15.222656 19.890625 C 15.347656 20.019531 15.445312 20.167969 15.515625 20.339844 C 15.582031 20.507812 15.617188 20.683594 15.617188 20.867188 Z M 15.617188 20.867188 " fill-opacity="1" fill-rule="nonzero"/></g></svg>